<svg xmlns="http://www.w3.org/2000/svg" viewBox="0 0 800 520" role="img" aria-labelledby="title desc">
  <title id="title">Docker Container Security</title>
  <desc id="desc">Stacked containers with lock and shield for secure container hardening.</desc>
  <defs>
    <linearGradient id="bg" x1="0" y1="0" x2="1" y2="1">
      <stop offset="0%" stop-color="#041023"/>
      <stop offset="100%" stop-color="#06080f"/>
    </linearGradient>
    <linearGradient id="line" x1="0" y1="0" x2="1" y2="0">
      <stop offset="0%" stop-color="#5edbff"/>
      <stop offset="100%" stop-color="#59a9ff"/>
    </linearGradient>
  </defs>
  <rect width="800" height="520" fill="url(#bg)"/>
  <g fill="none" stroke="#17375f" stroke-width="1" opacity="0.45">
    <path d="M40 90h720"/><path d="M40 170h720"/><path d="M40 250h720"/><path d="M40 330h720"/><path d="M40 410h720"/>
  </g>
  <g transform="translate(120 120)">
    <g fill="#0b1f3f" stroke="url(#line)" stroke-width="2.5">
      <rect x="0" y="0" width="120" height="60" rx="8"/>
      <rect x="140" y="0" width="120" height="60" rx="8"/>
      <rect x="280" y="0" width="120" height="60" rx="8"/>
      <rect x="70" y="80" width="120" height="60" rx="8"/>
      <rect x="210" y="80" width="120" height="60" rx="8"/>
      <rect x="350" y="80" width="120" height="60" rx="8"/>
      <rect x="140" y="160" width="120" height="60" rx="8"/>
      <rect x="280" y="160" width="120" height="60" rx="8"/>
    </g>
    <g stroke="#ff6b8c" stroke-width="3" fill="none">
      <path d="M540 26h72"/><path d="M576 -10v72"/>
    </g>
  </g>
  <g transform="translate(562 200)">
    <path d="M78 12l74 28v48c0 57-74 88-74 88s-74-31-74-88V40l74-28z" fill="#081a34" stroke="#68dcff" stroke-width="4"/>
    <rect x="50" y="62" width="56" height="44" rx="8" fill="none" stroke="#ff6b8c" stroke-width="4"/>
    <path d="M62 62v-10c0-10 7-18 16-18s16 8 16 18v10" fill="none" stroke="#ff6b8c" stroke-width="4"/>
  </g>
  <text x="36" y="485" fill="#d8eeff" font-family="'Space Grotesk', Arial, sans-serif" font-size="34" font-weight="700">DOCKER CONTAINER SECURITY</text>
</svg>
