<svg xmlns="http://www.w3.org/2000/svg" viewBox="0 0 800 520" role="img" aria-labelledby="title desc">
  <title id="title">Juice Jacking Attack Simulation</title>
  <desc id="desc">Smartphone connected to malicious USB cable with warning symbol.</desc>
  <defs>
    <linearGradient id="bg" x1="0" y1="0" x2="1" y2="1">
      <stop offset="0%" stop-color="#06122a"/>
      <stop offset="100%" stop-color="#05070d"/>
    </linearGradient>
    <linearGradient id="warn" x1="0" y1="0" x2="1" y2="1">
      <stop offset="0%" stop-color="#ff5c7a"/>
      <stop offset="100%" stop-color="#ff2f53"/>
    </linearGradient>
  </defs>
  <rect width="800" height="520" fill="url(#bg)"/>
  <g opacity="0.2" stroke="#4eaef2" stroke-width="1">
    <path d="M0 100h800"/><path d="M0 200h800"/><path d="M0 300h800"/><path d="M0 400h800"/>
    <path d="M100 0v520"/><path d="M220 0v520"/><path d="M340 0v520"/><path d="M460 0v520"/><path d="M580 0v520"/><path d="M700 0v520"/>
  </g>
  <g transform="translate(140 84)">
    <rect x="0" y="0" width="250" height="360" rx="28" fill="#0a1d3a" stroke="#63dcff" stroke-width="4"/>
    <rect x="18" y="44" width="214" height="266" rx="16" fill="#071225" stroke="#2b5f8f"/>
    <circle cx="125" cy="336" r="14" fill="none" stroke="#63dcff" stroke-width="3"/>
    <path d="M250 180h130c40 0 58 48 30 72l-34 28" fill="none" stroke="#65deff" stroke-width="5"/>
    <rect x="378" y="266" width="64" height="48" rx="6" fill="#091b35" stroke="#65deff" stroke-width="3"/>
    <rect x="392" y="280" width="16" height="20" rx="2" fill="#65deff"/>
    <rect x="412" y="280" width="16" height="20" rx="2" fill="#65deff"/>
  </g>
  <g transform="translate(545 130)">
    <path d="M110 0l110 190H0z" fill="url(#warn)"/>
    <path d="M110 58v62" stroke="#fff3f6" stroke-width="12" stroke-linecap="round"/>
    <circle cx="110" cy="150" r="8" fill="#fff3f6"/>
  </g>
  <text x="36" y="485" fill="#d8eeff" font-family="'Space Grotesk', Arial, sans-serif" font-size="34" font-weight="700">JUICE JACKING ATTACK SIMULATION</text>
</svg>
