<svg xmlns="http://www.w3.org/2000/svg" viewBox="0 0 800 520" role="img" aria-labelledby="title desc">
  <title id="title">Online Comic Book Web Application</title>
  <desc id="desc">Web comic editor interface with comic panels and collaboration bubbles.</desc>
  <defs>
    <linearGradient id="bg" x1="0" y1="0" x2="1" y2="1">
      <stop offset="0%" stop-color="#08152f"/>
      <stop offset="100%" stop-color="#04070f"/>
    </linearGradient>
    <linearGradient id="panel" x1="0" y1="0" x2="1" y2="1">
      <stop offset="0%" stop-color="#112b53"/>
      <stop offset="100%" stop-color="#0a1832"/>
    </linearGradient>
  </defs>
  <rect width="800" height="520" fill="url(#bg)"/>
  <g transform="translate(94 76)">
    <rect x="0" y="0" width="612" height="336" rx="18" fill="#09182f" stroke="#66ddff" stroke-width="3"/>
    <rect x="24" y="28" width="564" height="260" rx="12" fill="url(#panel)"/>
    <rect x="44" y="48" width="162" height="108" rx="8" fill="#0b1a33" stroke="#5ad6ff"/>
    <rect x="224" y="48" width="162" height="108" rx="8" fill="#0b1a33" stroke="#ff6d8e"/>
    <rect x="404" y="48" width="162" height="108" rx="8" fill="#0b1a33" stroke="#5ad6ff"/>
    <rect x="44" y="176" width="252" height="90" rx="8" fill="#0b1a33" stroke="#ff6d8e"/>
    <rect x="314" y="176" width="252" height="90" rx="8" fill="#0b1a33" stroke="#5ad6ff"/>
    <circle cx="126" cy="100" r="22" fill="#66ddff" opacity="0.6"/>
    <path d="M96 132h56" stroke="#66ddff" stroke-width="3"/>
    <path d="M280 92l22 18 18-24" stroke="#ff6d8e" stroke-width="4" fill="none"/>
    <path d="M488 118c12-16 30-16 42 0" stroke="#66ddff" stroke-width="4" fill="none"/>
    <path d="M80 220h176M80 240h126" stroke="#ff6d8e" stroke-width="3"/>
    <path d="M350 220h176M350 240h140" stroke="#66ddff" stroke-width="3"/>
    <rect x="230" y="304" width="156" height="18" rx="9" fill="#14335f"/>
  </g>
  <g fill="#0b1e3a" stroke="#68dcff" stroke-width="3">
    <path d="M56 118h74a14 14 0 0 1 14 14v36a14 14 0 0 1-14 14h-34l-22 18v-18H56a14 14 0 0 1-14-14v-36a14 14 0 0 1 14-14z"/>
    <path d="M656 58h96a14 14 0 0 1 14 14v42a14 14 0 0 1-14 14h-46l-24 18v-18h-26a14 14 0 0 1-14-14V72a14 14 0 0 1 14-14z"/>
  </g>
  <text x="36" y="485" fill="#d8eeff" font-family="'Space Grotesk', Arial, sans-serif" font-size="34" font-weight="700">ONLINE COMIC BOOK WEB APPLICATION</text>
</svg>
