<svg xmlns="http://www.w3.org/2000/svg" viewBox="0 0 96 96" role="img" aria-label="macOS logo">
  <defs>
    <linearGradient id="g" x1="0" y1="0" x2="1" y2="1">
      <stop offset="0%" stop-color="#6F86FF"/>
      <stop offset="50%" stop-color="#B05CFF"/>
      <stop offset="100%" stop-color="#FF6EA8"/>
    </linearGradient>
  </defs>
  <rect width="96" height="96" rx="14" fill="#121826"/>
  <circle cx="48" cy="48" r="28" fill="url(#g)"/>
  <path d="M57 34c-2 1-4 4-4 7 3 0 5-1 7-3 2-2 3-5 2-8-2 0-4 1-5 4z" fill="#fff"/>
  <path d="M60 66c-2 3-4 6-7 6-3 0-4-2-8-2s-5 2-8 2c-3 0-5-3-7-6-5-7-6-17-2-22 2-3 5-5 8-5 3 0 5 2 8 2 3 0 5-2 8-2 1 0 4 0 6 3-5 3-4 11 1 13-1 3-2 5-3 7z" fill="#fff"/>
</svg>
